<?xml version="1.0" encoding="UTF-8"?>
<svg id="Layer_1" xmlns="http://www.w3.org/2000/svg" version="1.1" xmlns:xlink="http://www.w3.org/1999/xlink" viewBox="0 0 500 500">
  <!-- Generator: Adobe Illustrator 29.6.1, SVG Export Plug-In . SVG Version: 2.1.1 Build 9)  -->
  <defs>
    <style>
      .st0 {
        fill: url(#linear-gradient);
      }
    </style>
    <linearGradient id="linear-gradient" x1="106.76" y1="82.73" x2="475.71" y2="375.83" gradientUnits="userSpaceOnUse">
      <stop offset="0" stop-color="#00e0fc"/>
      <stop offset=".12" stop-color="#2cb8fb"/>
      <stop offset=".3" stop-color="#6b81fa"/>
      <stop offset=".47" stop-color="#a053fa"/>
      <stop offset=".64" stop-color="#c92ff9"/>
      <stop offset=".78" stop-color="#e615f9"/>
      <stop offset=".91" stop-color="#f805f9"/>
      <stop offset="1" stop-color="#ff00f9"/>
    </linearGradient>
  </defs>
  <path class="st0" d="M435.92,340.87c-1.35,1.34-4.64,17.99-6.25,22.35-11.46,31.08-49.32,51.31-81.26,52.65-13.33.56-26.7-3.79-39.73-5.55-.54,14.27,17.71,38.04,5.63,49.58-15.52,14.83-32.05-6.55-40.26-18.45-12.32-17.87-19.91-38.64-32.58-56.7-8.2-11.7-17.28-19.25-26.23-29.56-1.52-1.75-4.07-7.24-4.45-7.46-1.67-.98-8.92,2.14-11.78,2.47-25.03,2.86-48.46.17-68.24-16.56-19.28-16.31-26.59-39.29-21.58-64.2-32.47-1.2-66-6.57-84.29-36.38-32.05-52.22,12.91-119.66,55.11-151.12C175.71,10.58,361.13,18.99,434.8,118.88c35.35,47.94,84.81,175.32,18.53,214.98-3.66,2.19-16.74,6.34-17.41,7ZM430.18,335.13c53.92-5.01,53.8-72.91,45.23-113.2-15.01-70.64-60.68-136.46-129.76-161.79-86.46-31.72-195.98-27.05-269.84,31.53-42.02,33.32-84.84,113.64-31.47,155.39,20.01,15.65,42.04,15.78,66.22,18.16.57-3.86-.65-2.63-3.45-2.79C18.77,257.25-1.49,193.64,48.05,125.27c42.2-58.24,124.24-85.4,194.35-81.83,107.42,5.47,182.88,43.02,221.14,147.13,13.91,37.85,28.4,117.3-18.16,138.13-20.38,9.11-41.93-7.68-61.03-14.29-40.95-14.16-104.16-5.9-143.98,10.15-13.99,5.64-27.33,14.52-42.71,17.28-41.9,7.52-86.9-17.62-81.34-64.6.85-7.21,5.23-13.2,5.42-20.37-3.95-.71-2.29.95-3.14,3.06-20.27,50.4,20.5,90.64,70.62,86.03,26.24-2.41,48.55-20.75,74.06-26.36,3.7,7.33,8.03,20.78,18.92,17.6,2.49-.73,16.21-10.68,16.61-12.86.4-2.19-4.48-4.05-1.97-6.12l17.41,1.42c.48,5.29-5.98,1.72-3.46,8.32,2.01,5.27,7.7,9.94,13.64,8.45,1.53-.39,14.15-18.97,17.01-19.17.43-.03,7.57,2.35,7.68,3.78-7.47.09-23.77,19.2-22.4,25.56.16.73,4.51,3.33,5.23,3.42,1.54.19,21.07-8.05,23.25-9.64,8.29-6.06,15.92-21.12,28.79-13.06-2.97,4.61-18.65,6.27-16.69,12.46,1.23,3.87,21.28,8.58,26.45,7.18,5.11-1.39,15.37-9.78,17.73-10.33,1.86-.44,14.14,2.39,15.18,3.91-5.61,62.04-84.4,82.94-132.61,53.05-4.66,3.31.57,5.21,2.14,8.99,3.12,7.51,14.81,40.21,14.87,46.37.09,8.68-9.93,8.19-15.93,4.9-15.55-8.53-35.93-57.02-47.54-73.82-7.65-11.08-15.62-17.91-23.98-27.63-1.09-1.26-4.48-7.78-4.91-7.63-3.46,1.17-.83,3.86.14,5.43,7.21,11.72,21.32,22.85,29.89,35.68,13.06,19.57,26.5,57.47,45.3,70.48,5.04,3.49,15.38,5.05,18.1-1.43,5-11.93-11.92-37.65-10.42-51.58,1.39-1.37,26.55,6.29,31.55,6.8,47.34,4.81,94.75-24.63,96.93-75ZM227.36,52.22c-10.62-8.96-52.15-2.22-28.91,8.67,5.54,2.6,27.65,7.56,31.49,2.17,1.92-2.69-.28-8.89-2.58-10.83ZM253.9,50.74c-15.3,2.51-20.21,17.02,1.08,19.18,6.06.61,42.46-.48,34.91-12.58-2.58-4.13-30.65-7.48-35.99-6.6ZM167.44,56.34c-7.6.93-37.84,9.72-40.86,16.43-1.01,2.24-.51,3.11.38,5.15,7.36,16.82,50.57-4.23,51.74-17.31.49-5.51-7.94-4.67-11.27-4.26ZM312.51,60.4c-12.93,2.14.26,16.13,6.33,19.59,15.89,9.06,35.13-4,15.92-14.53-3.92-2.15-18.15-5.74-22.26-5.06ZM186.96,96.1c1.7-1.66.8-17.9.41-21.35-.96-8.68-6.5-2.88-11.08.22-2.6,1.76-16.04,12.31-16.71,13.99-.52,1.31-.79,2.39.65,3.4,3.9,2.73,22.89,7.49,26.73,3.74ZM191.49,69.93c.58,5.8-.8,24.6,5.47,25.87,2.55.52,23.21-13.89,23.73-15.54,1.23-3.9-2.64-4.65-5.11-5.81-6.96-3.28-16.44-4.92-24.09-4.51ZM266.24,97.02c4,3.87,8.03,11.24,14.47,5.62.9-.79,10.17-19.77,10.61-21.52,2.06-8.23-11.9-6.02-18.2-5.59-27.53,1.85-22.8,6.09-6.88,21.49ZM287.89,110.27c1.42.99,31.31-6.12,32.77-8.2,2.02-8.51-15.73-26.39-23.16-21.73-2.71,1.7-14.47,26.54-9.61,29.93ZM375.21,91.26c-5.33-6.72-26.66-12.06-30.6-2.84-6.37,14.91,15.14,26.36,27.35,27.65,3.4-6.05,7.92-18.93,3.25-24.82ZM224.95,127.13c2.34-6.72,5.04-12.89,5.65-20.17,2.15-25.65-4.61-26.71-22.39-11.23-18.56,16.16,3.63,23.35,16.74,31.4ZM267.85,118.41c8.87-9.35-20.51-33.88-23.38-32.52-6.54,3.11-10.26,35.34-6.88,42.57,1.55,1.33,28.18-7.86,30.26-10.06ZM100.82,97.86c6.46,18.26,16.73,23.81,29.3,6.24,10.14-14.17-22.14-11.62-29.3-6.24ZM63.16,118.75c4.02,4.05,23.05-15.1,22.32-20.19-.33-2.29-2.04-1.65-3.71-.97-4.01,1.64-22.58,17.17-18.61,21.16ZM404.53,125.35c1.06-1.06,2.9-5.49,2.84-7.05-.29-7.33-19.05-25.25-24.84-21.25-1.87,1.3-5.38,16.95-5.39,19.81-.05,10.84,20.81,15.11,27.39,8.49ZM151.36,99.55c-4.54,4.68-1.43,29.25,1.38,34.94.81,1.64,1.05,2.48,3.18,2.47,1.78-.01,19.75-17.68,21.61-20.3,11.31-15.9-22.26-21.15-26.18-17.11ZM93.45,103.62c-10.21,2.8-15.42,32.69-4.28,34.51,2.27.37,18.07-12.56,18.65-15.96.98-5.79-8.4-20.19-14.36-18.55ZM136.63,106.36c-3.24.28-16.7,13.66-16.35,17.21s19.41,19.35,21.66,18.91c5.1-1,.65-28.37-1.75-33.09-.8-1.57-1.34-3.22-3.56-3.03ZM321.22,109c-1.69-1.68-31.06,5.1-32.57,8.69-2.67,6.36,7.31,29.85,12.35,35.93,4.53-4.72,23.17-41.7,20.22-44.63ZM369.82,121.76c-.63-1.02-20.08-9.06-22.04-9.43-6.96-1.33-3.21,11.85-2.47,16.52.49,3.09,4.37,21.67,5.92,21.99,2.1.44,2.91-1.75,4.03-2.92,2.07-2.16,13.06-17.24,14.02-19.45.78-1.8,1.52-5.11.53-6.71ZM339.36,113.17c-7.27-.98-12.33,7.52-15.58,13.03-2.67,4.52-15.23,32.89-12.31,35.8,6.88-1.47,29.88-1.94,32.75-8.39,3.93-8.86-5.39-30.2-4.86-40.44ZM179.44,120.65c-2.36,2.12-17.62,19.95-18.09,21.75-1.23,4.73,10.78,5.79,14.05,5.67,6.56-.25,41.43-8.42,42.53-14.82-8.28-12.26-24.93-24.8-38.49-12.6ZM283.24,126.05c-.45-.31-9.54-2.74-10.51-2.85-4.77-.57-30.35,9.55-29.52,14.21,1.33,7.46,27.77,17.89,34.99,19.5,4.27.95,14.72,4.43,15.18-1.18.21-2.53-8.79-28.75-10.14-29.67ZM110.19,128.8c-4.21.95-19.5,13.59-14.97,18.55,4.75,5.2,35.89,8.76,41.8,1.42-1.09-2.11-2.55-3.84-4.08-5.63-1.37-1.6-14.46-13.45-15.4-13.89-2.45-1.13-4.79-1.02-7.34-.44ZM376.33,129c-3.4-.01-19.43,20.92-19.84,24.1-.15,1.14-.04,12.19.19,13.09.73,2.81,9.33,18.16,11.36,20.83,10.95,14.34,23.88-15.02,24.39-25.68.39-8.3-5.9-32.3-16.11-32.34ZM61.39,130.16c-12.74,2.63-13.97,29.17,1.07,29.13,20.41-.05,17.42-32.95-1.07-29.13ZM410.14,131.54c-15.66,2.8-2.69,37.89,17.62,27.49,14.7-7.53-4.65-29.81-17.62-27.49ZM41.55,146.66c-3.86.81-12.49,23.43-6.98,25.09,7.49,2.26,15.07-26.8,6.98-25.09ZM213.56,148.4c-6.43.37-40.71,6.82-44.93,9.58-1.22.79-2.58,1.43-2.19,3.23.5,2.34,15.9,12.48,19.04,14.47,3.3,2.1,18.89,11.51,21.31,12.24,3.1.95,5.9.63,8.37-1.56,2.81-2.49,8.47-27.51,8.48-32.12.02-6.12-5.45-6.12-10.09-5.85ZM235.75,149.65c-2.43.65-6.17,5.74-7.31,8.14-2.19,4.63-6.96,25.09-5.51,29.23.43,1.22,3.2,5.18,4.36,5.53,1.98.58,32.89-9.28,37.47-10.99,13.99-5.23,24.14-6.96,5.82-18.43-5.38-3.37-29.69-14.86-34.83-13.47ZM96.15,159.43c-6.92,2.1,6.93,14.32,9.59,16.48,9.37,7.64,11.79,9.49,22.24,1.4,3.35-2.59,17.59-16.45,8.4-18.09-3.88-.7-37.33-.67-40.23.21ZM365.86,195.48c1.44-1.38-11.32-26.74-14.03-28.5-.73-.48-11.05-5.03-11.68-5.05-2.44-.07-26.38,4.62-27.29,5.67-3.6,4.19,14.83,15.69,18.11,17.45,4.69,2.51,31.66,13.52,34.89,10.43ZM436.46,163.47c-7.8,2.33,4.85,24.1,12.42,23.6,7.49-.5-2.91-26.44-12.42-23.6ZM86.35,167.7c-8.55,1.43-7.5,27.66-2.91,34.69,3.84,5.89,7.79,10.04,13.88,5.63,6.75-4.88,18.45-16.88,11.21-25.14-1.72-1.97-20.76-15.43-22.18-15.19ZM162.19,208.03c2.21-2.28-10.19-35.92-15.37-38.43-2.94-1.42-18.96,12.13-20.17,14.74-1.33,2.88-1.34,5.19.69,7.64,2.21,2.65,32.82,18.13,34.85,16.05ZM206.65,199.5c1.02-1.65.05-4.6-1.12-6.21-1.75-2.41-36.56-22.55-40.51-23.68-10.86-3.11-6.53,8.52-4.9,14.7,2.56,9.73,6.89,25.37,19.13,24.84,2.75-.12,26.64-8.42,27.4-9.65ZM414.48,207.84c3.52-2.22-1.62-26.96-1.48-32.29-7.21-11.07-22.65,7.94-25.48,15.78-7.68,21.3,12.46,15.13,26.96,16.51ZM417.49,173.16l1.62,29.77c2.79,8.24,23.44-1.83,21.88-9.22-1.46-6.89-15.16-22.07-23.49-20.55ZM283.56,182.93c-2.15-2.17-52.27,12.54-55.76,16.07-1.29,1.31-2.72,4.48-2.08,6.28,1.13,3.18,14.53,19.98,18.41,20.68,9.61,1.73,35.99-27.51,38.78-36,.76-2.32.79-4.64.64-7.03ZM321.51,228.7c2.28,1.36,25.58-9.13,29.51-11.1,2.78-1.39,12.59-5.3,11.99-8.72-.86-4.9-41.84-20.32-48.39-21.44-2.91-.49-5.82-.43-8.74-.34-2.37,2.36,5.51,29.43,7.65,33.52,2.62,5,6.15,3.33,7.98,8.08ZM261.24,233.15h42.55c.42,0,5.74-5.53,5.9-5.92.68-1.63.51-2.67.29-4.34-.51-3.97-7.53-26.29-9.37-29.81-.87-1.66-1.53-3.26-3.79-3.25-4.83.03-32.46,30.89-34.51,36.72-.78,2.23-1.44,4.17-1.07,6.6ZM51.04,218.76c12.23,13.63,34.26-9.36,18.42-21.92s-30.33,8.64-18.42,21.92ZM121.46,195.81c-7.43.14-21.23,11.73-21.86,18.77-.51,5.69,25.76,11.63,31.19,11.7,5.47.07,24.18-3.84,26.62-8.45,1.04-1.96.34-2.11-.7-3.57-2.82-3.98-30.82-18.53-35.25-18.45ZM448.15,235.93c3.41-5.04.87-32.28-4.81-33.15-.78-.12-14.1,5.43-14.71,5.94-8.01,6.67,14.11,24.19,19.52,27.21ZM457.28,203.86c-6.32,1.89.59,23.67,5.54,23.68,6.82,0,3.01-26.23-5.54-23.68ZM205.1,205.48c-2.2.24-22.07,7.2-23.81,8.39-8.57,5.84-.38,18.4,4.66,24.12,2.68,3.04,6.51,8.65,10.43,4.91,2.85-2.72,13.3-30.66,13.23-34.27-.06-2.95-1.94-3.43-4.5-3.15ZM202.66,244.3c1.62,1.46,32.37-8.16,34.25-11.14,2.18-3.46-12.04-23.11-14.71-24.47-1.58-.8-2.91-.96-4.62-.47-6.11,1.75-13.23,29.41-14.92,36.07ZM401.95,241.31c2.17-1.25,12.08-22.57,11.2-25.36-1.56-4.96-21.27-4.79-26.37-5.13-.63,6.54,1.84,12.76,4.39,18.64,1.41,3.25,6.04,14.57,10.78,11.85ZM324.2,233.32c-2.96,4.79,16.97,20.19,20.83,21.47,2.59.86,6.11.13,8.21-1.49,1.44-1.11,9.54-19.87,10.46-23.01,1.02-3.48,4.82-12.05-1.33-12.54-7.6-.61-29.08,14.03-38.17,15.56ZM82.32,219.41c-10.21,1.83-7.23,14.26,1.35,16.22,17.77,4.07,10.2-18.29-1.35-16.22ZM417,222.22c-2.19.76-10.72,18.9-11.47,22.11-.52,2.23-1.02,2.9.66,4.97,6.3,7.76,35.52.17,36.2-8.73.21-2.76-13.81-17.86-17.27-18.55-1.99-.39-6.29-.44-8.12.2ZM174.46,227.87c-1.69-.92-4.79.13-7.04-.62-2.12-.7-3.76-3.21-5.9-3.33-7.99-.45-25.3,16.49-24.44,25.14,2.25,22.78,48.03,7.52,48.9-1.28.25-2.51-10.1-19.13-11.53-19.91ZM359.08,259.47c2.49,1.55,33.71-1.52,35.5-3.93,2.91-3.9-13.05-32.2-18.26-32.2-3.46,0-8.15,8.11-9.82,11.14-2.02,3.66-11.16,22.66-7.42,24.99ZM108.78,233.41c-9.83,2.95.58,22.19,10.75,14.97,8.25-5.85-.59-18.02-10.75-14.97ZM61.3,236.14c-8.48,2.89,1.43,14.7,10.89,13.74,10.86-1.11-.42-17.3-10.89-13.74ZM307.07,236.12c-1.94-1.21-43.68,1.58-45.61,2.8-6.47,4.07,15.63,23.33,20.34,24.57,3.29.86,8.15,1.12,10.8-1.07,1.07-.88,14.58-18.75,15.06-19.94.72-1.77.69-5.56-.59-6.36ZM458.95,241.74c-12.11,1.84-8.53,20.61,2.16,25.24,14.37,6.23,11.11-27.26-2.16-25.24ZM241.71,242.91c-1.79-1.8-41.35,7.38-40.27,14.39.66,4.26,14.6,20.42,20.76,18.54,3.61-1.11,16.85-20.93,18.41-24.94,1.06-2.73,1.4-5.08,1.09-7.98ZM343.54,262.43c2.42-2.6-18.67-18.07-21.01-18.85-1.13-.38-8.6-.17-9.88.12-2.84.63-18.45,22.47-16.53,24.32,15.98.69,31.65-3.54,47.42-5.58ZM276.13,265.67c-1.61-1.9-18.75-15.79-20.54-16.44-12.97-4.7-27.64,28.68-25.04,31.34l47.44-9.78c.16-1.95-.63-3.69-1.85-5.13ZM191.21,258.52c-6.78.69-18.7,6.59-23.49,11.53-7.48,7.71-15.12,22.14,2.08,21.72,5.11-.12,39.29-6.51,41.37-8.99,2.66-3.17.35-5.8-1.55-8.49-3.41-4.83-12.54-16.37-18.41-15.77ZM410.92,265.64c-4.81,5.54,7.71,16.58,11.72,17.5,1.16.27,11.26-1.34,12.91-1.92,2.04-.72,12.53-9.22,12.72-11.13,1.21-12.35-28.54-14.59-37.35-4.44ZM358.9,265.25c-1.91,2.84,13.11,17.4,16.04,19.5,1.63,1.17,3.46,2.84,5.62,2.78,5.76-.16,15.92-17.9,12.62-23.79-2.19-3.08-29.05.8-34.27,1.51ZM298.9,273.61c-4.44,4.72,16.13,17.86,19.98,19.78,4.25,2.12,10.19,5.38,14.87,3.23,4.31-1.98,19.08-29.49,8.03-29.64-3.72-.05-41.4,5.05-42.88,6.63ZM342.85,298.71c3.96,1,15.78,0,20.92,0,1.54,0,10.65-4.29,9.92-7.05-.63-2.39-13.05-16.75-15.42-18.13-2.72-1.59-6.42-2.94-8.15.41-1.89,3.68-4.69,10.58-6.26,14.63-.78,2.02-4.31,9.31-1.02,10.14ZM279.35,274.99c-1.86-1.37-39.14,10.09-45.01,10.06-1.93.64-3.91,3.9-3.54,5.78.26,1.32,10.85,14.13,12.85,14.95,7.22,2.95,13.56,1.6,19.68-2.89,4.31-3.16,22.53-23.1,16.02-27.9ZM403.06,276.52c-7.56,2.42-7.76,32.62,2.32,31.75,3.44-.3,16.11-13.12,15.93-16.99-.27-5.98-13.54-16.27-18.25-14.76ZM450.52,276.57c-1.79.16-11.63,6.44-12.92,8.08-5,6.33-2.29,13.2,2.4,18.73,12.55,14.8,21.22-27.77,10.52-26.81ZM272.53,305.55c2.85,4.16,32.99-1.8,35.48-6.84,2.5-5.07-7.59-14.65-11.99-16.06-2.33-.75-7.86.19-10,1.09-3.73,1.57-16.08,18.02-13.49,21.81ZM138.07,289.22c-8.33,2.5-2.67,22.94,7.81,20.44,6.69-1.59,6.13-24.63-7.81-20.44ZM212.32,289.04c-1.93-1.38-42.98,6.5-46.77,8.14-10.46,4.53,1.04,18.43,7.95,21.62,10.19,4.7,20.26,3.08,27.54-5.65,1.83-2.19,11.09-16.88,11.74-19.04.62-2.05.21-3.15-.47-5.06ZM218.98,294.82c-4.69,1.41-15.05,20.54-12.91,24.79,3.48,6.92,37.61,2.39,32.11-12.47-2.8-7.56-10.56-14.92-19.2-12.32ZM424.05,297.59c-2.88.88-14.27,14.58-13.51,17.06,1.91,6.23,25.43,3.12,28.67-1.97,1.76-2.76-6.04-17.86-15.16-15.09ZM154.83,317.1c-10.44,1.58-5.95,14.82,3.96,16.41,21.37,3.42,8.41-18.28-3.96-16.41ZM256.6,325.57c-2.42.12-26.59,11.79-28.21,13.52-5.26,5.59-.25,14.2,7.06,14.11,3.51-.04,6.04-2.89,8.36-2.83,2.64.07,4.42,3.5,6.94,3.61,1.79.08,14.85-4.32,16.08-5.73,5.33-6.1-3.58-23.02-10.24-22.67ZM201.25,334.96c5.07-7.68-22.37-12.41-22.38-2.08,0,6.24,21.65,3.18,22.38,2.08ZM315.81,347.37c-.35-.43-.25-5.66-1.75-8.72-1.23-2.52-7.42-10.13-10.27-10.14-4.35-.02-25.63,14.3-17.46,21.14.79.66,17.3,6.47,19.36,6.87,1.44.27,12.07.91,13.31.77,3.16-.36,10.59-4.72,6.39-7.64-2.01-1.4-8.97-1.52-9.58-2.28ZM418.87,341.95c-1.62-1.62-25.96,6.07-21.62,15.32.65,1.39,7.79,7.97,9.43,8.73,11.36,5.22,13.1-16.46,12.19-24.05ZM382.43,355.74c2.79-4.86-10.06-8.99-13.44-9.36-2.83-.31-4.9,1.1-6.68.97-2.31-.16-3.87-1.96-5.49-2.06-2.15-.13-18.39,6.46-18.84,8.54-.49,2.28,14.12,11.17,16.2,11.44.76.1,11.15,0,11.72-.15.92-.25,16.07-8.56,16.54-9.38ZM276.26,380.69c3.56-3.57.17-26.26-3.86-28.36-3-1.56-21.69,6.2-22.98,9.06-1.61,3.59,4.75,17.07,8.31,19.65,4.57,3.3,14.71,3.48,18.53-.36ZM302.79,360.39c-.69-.96-17.68-6.25-20.62-7.27-.44,5.53.35,21.66,4.77,25.24,5.97,4.84,21.65-9.9,15.85-17.97ZM350.02,379.12c9.21-9.68-15.44-22.35-20.78-21.58-2.59.37-9.94,5.07-10.61,7.73-1.09,4.32,9.69,21,15.16,22.13,3.98.82,13.38-5.28,16.24-8.28ZM367.56,368.74c-4.67,8.08,12.36,17.02,18.68,17.76,8.68,1.02,21.86-8.26,17.97-16.62-1.89-4.06-10.86-10.59-15.7-10.85-3.47-.19-19.85,7.8-20.95,9.72ZM313.64,370.29c-5.83-.98-17.48,10.96-15.93,16.69,1.82,6.74,29.17,16.11,26.78,2.72-.5-2.81-8.84-19.07-10.85-19.41ZM355.69,379.9c-2.58.78-15.35,12.29-15.04,15.73.83,9.44,36.75,2.81,37.71-2.92.77-4.57-15.66-14.94-22.67-12.82ZM280.58,411.51c5.53-7.44-6.77-27.54-15.25-21.53-5.47,3.88,6.6,26.1,15.25,21.53ZM288.62,415.98c-7.93,7.56-2.94,25.27,7.99,27.61,8.9-1.63-.85-29.67-7.99-27.61Z"/>
</svg>